<svg transform="scale(1)" id="_0001_approval" xmlns="http://www.w3.org/2000/svg" viewBox="0 0 500 500" class="show_show__wrapper__graphic__5Waiy "><title>React</title><defs><style>.cls-1{fill:#d6b2a4;}.cls-2{fill:#fff;}.cls-3{fill:#3c4368;}.cls-4{fill:#ffde91;}.cls-5{fill:#af93a2;}.cls-6{fill:#292e54;}.cls-7{fill:#e6e7e8;}.cls-8{fill:#bcbec0;}</style></defs><g id="shadow"><path class="cls-7" d="M457.25,452.4c-142.38,38.24-287.85,42.96-430.98,13.99-3.73-.76-3.78-10-.06-10.86,46.88-10.77,95.27,1.35,142.82-3.16,41.17-3.9,81.56-20.08,122.72-24.04,19.73-1.9,38.68,3.9,58.21,4.18,17.62,.25,35.21-1.97,52.89-.93,18.29,1.07,36.63,3.8,54.56,10.05,3.5,1.22,3.37,9.82-.16,10.76Z"></path></g><g id="character"><path class="cls-5" d="M245.2,461.75c-1.34-.03-2.73-.1-3.95-.67s-2.25-1.74-2.25-3.08c0-2.08,2.24-3.35,4.17-4.12,8.6-3.46,17.55-6.28,26.64-8.14,4.19-.86,13.05-3.08,15.84,1.66,7.11,12.06-34.49,14.49-40.45,14.35Z"></path><path class="cls-5" d="M350.53,457.4c1.34-.03,2.73-.1,3.95-.67s2.25-1.74,2.25-3.08c0-2.08-2.24-3.35-4.17-4.12-8.6-3.46-17.55-6.28-26.64-8.14-4.19-.86-13.05-3.08-15.84,1.66-7.11,12.06,34.49,14.49,40.45,14.35Z"></path><path class="cls-6" d="M268.63,447.1c5.04,.17,10.07,.35,15.11,.52,21.69-40.26,46.4-78.91,73.84-115.49,1.19,20.09-5.62,39.83-14.4,57.93s-19.61,35.22-27.33,53.8c5.46-.01,10.91-.03,16.37-.04,4.93-21.32,18.44-39.43,30.47-57.71,12.03-18.28,23.2-38.68,22.42-60.55-.4-11.1-5.19-23.39-15.61-27.23-6.89-2.54-14.78-.72-21.07,3.07-19.51,11.73-22.19,29.51-29.69,49.38-8.13,21.55-17.89,42.48-29.17,62.56-6.49,11.56-13.48,22.83-20.95,33.78Z"></path><path class="cls-1" d="M445.17,198.03c-26.18,11.95-57.69,11.54-83.56-1.09-11.32-5.53-21.72-13.29-33.92-16.42-3.11-.8-7.24-.82-8.58,2.1-.91,1.97,.1,4.39,1.73,5.82s3.74,2.16,5.75,2.98c11.64,4.75,20.97,13.77,31.87,20.03,11.9,6.84,25.44,10.27,38.91,12.93,14.58,2.89,29.73,4.96,44.23,1.65s28.33-13.01,32.8-27.18c1.64-5.18,1.66-23.83-7.96-17.75-3.64,2.3-5.9,6.82-9.23,9.61-3.61,3.02-7.77,5.37-12.04,7.32Z"></path><path class="cls-4" d="M289.26,130.45c-2.87,1.46-6.38,1.87-9.35,.63s-5.24-4.29-5.11-7.51,2.99-6.23,6.22-6.1c2.39,.09,4.49,1.74,5.75,3.77s1.82,4.4,2.32,6.74"></path><path class="cls-6" d="M363.95,67.32c3.87,3.59,5.6,9.28,5.35,14.69s-2.27,10.6-4.88,15.27c-6.55,11.72-17.11,20.93-29.29,25.55-5.37,2.04-11.68,3.11-16.56,0-6.35-4.04-7.52-13.24-6.49-20.95,1.53-11.48,6.6-26.63,17.25-31.99,9.49-4.78,25.67-10.87,34.62-2.57Z"></path><path class="cls-4" d="M282.82,123.1c-2.05,16.42-1.5,33.43,3.99,49.04,2.12,6.02,6.03,12.58,12.38,13.19,5.46,.52,10.15-3.64,13.97-7.58,8.93-9.2,17.48-18.91,23.88-30.02,6.39-11.11,10.56-23.77,10.13-36.58-.43-12.81-5.83-25.73-15.84-33.74-8.34-6.66-28.91-13.05-36.92-2.53-4.04,5.3-4.94,15.84-6.53,22.2-2.14,8.58-3.96,17.24-5.06,26.02Z"></path><path class="cls-6" d="M346.47,78.7c3.79,4.78,7.38,11.36,4.28,16.61-1.82,3.07-5.4,4.56-8.8,5.63-19.43,6.12-41.11,4.78-59.65-3.68-18.54-8.46-33.75-23.96-41.87-42.65-3.12-7.19-7.7-21.23,.25-27.04,6.44-4.71,17.98-1.15,24.88,.43,20.38,4.66,39.71,13.8,56.29,26.52,9.15,7.02,17.47,15.14,24.63,24.17Z"></path><path class="cls-6" d="M306.3,128.29c-.12-1.61,.54-3.6,2.14-3.83,1.18-.17,2.29,.8,2.69,1.93s.27,2.37,.13,3.55c-.09,.75-.18,1.51-.52,2.19s-.96,1.25-1.72,1.32c-.93,.08-1.77-.66-2.11-1.53s-.31-1.83-.27-2.76"></path><path class="cls-6" d="M292.61,125.27c-.57-1.28,.67-2.96,2.06-2.79,1.08,.13,1.88,1.15,2.12,2.21s.03,2.17-.18,3.24c-.16,.84-.34,1.71-.86,2.39s-1.5,1.09-2.26,.69c-.82-.43-.99-1.51-.95-2.43,.04-.92,.18-1.92-.31-2.7"></path><path class="cls-6" d="M315.35,158.91c-.2-1.04-.4-2.14-.04-3.13s1.47-1.8,2.46-1.43c.92,.35,1.26,1.49,1.27,2.48,.02,2.95-2.01,5.81-4.8,6.77-1.01,.35-2.35,.34-2.88-.58-.45-.77-.04-1.81,.67-2.35s1.62-.71,2.49-.87"></path><path class="cls-4" d="M336.59,129.15c.06-4.73,4.18-9.05,8.9-9.34,4.72-.28,9.33,3.51,9.96,8.2,.62,4.69-2.83,9.56-7.46,10.53-4.63,.96-9.74-2.13-11.04-6.68"></path><path class="cls-7" d="M337.59,125.08c-.06,0-.12,0-.17-.02-.35-.1-.55-.46-.46-.81,.66-2.4,2.74-4.39,5.16-4.95,.35-.08,.71,.14,.79,.49,.08,.35-.14,.71-.49,.79-1.97,.46-3.65,2.07-4.19,4.02-.08,.29-.34,.48-.63,.48Z"></path><path class="cls-7" d="M281.3,132.62s-.07,0-.1,0c-.36-.06-.6-.39-.54-.75l2.15-13.5c.06-.36,.39-.6,.75-.54,.36,.06,.6,.39,.54,.75l-2.15,13.5c-.05,.32-.33,.55-.65,.55Z"></path><path class="cls-1" d="M307.14,198.54c-3,16.93,3.48,33.95,4.99,51.07,1.25,14.17-.98,28.64-6.44,41.77-2.33,5.61-5.26,11.04-6.53,16.98-1.27,5.94-.61,12.71,3.53,17.17,4.14,4.46,10.85,5.63,16.88,4.82s11.68-3.3,17.48-5.13c12.04-3.82,24.95-4.85,37.45-3,5.68,.84,12.04,2.12,16.72-1.2,5.07-3.6,5.65-10.85,5.15-17.05-1.48-18.64-8.17-36.56-17.11-52.97-8.95-16.42-20.13-31.48-31.28-46.49-5.62-7.57-13.22-19.57-22.69-22.71-10.01-3.32-16.71,8.7-18.14,16.74Z"></path><path class="cls-1" d="M266.43,246.99c-9.76,17.72-10.86,39.96-2.91,58.56,2.57,6.02,7.02,12.3,13.55,12.81,5.99,.47,11.39-4.53,13.11-10.28s.52-11.98-1.39-17.68c-1.91-5.7-4.51-11.19-5.66-17.09-2.26-11.59,1.33-23.64,7-34,5.67-10.36,13.33-19.46,20.07-29.16,2.59-3.73,5.1-7.68,5.92-12.14,1.64-8.98-3.81-10.67-8.34-3.62-4.07,6.34-8.04,12.33-13.03,18.03-9.81,11.19-21.08,21.41-28.33,34.58Z"></path><path class="cls-2" d="M254.93,459.04c-.13,0-.25,0-.38,0-.29,0-.52-.24-.52-.53,0-.29,.24-.52,.52-.52h0c.12,0,.25,0,.37,0,9.94,0,19.74-2.62,28.36-7.57,.25-.14,.57-.06,.71,.19,.14,.25,.06,.57-.19,.71-8.78,5.05-18.76,7.71-28.89,7.71Z"></path><path class="cls-2" d="M336.6,454.87s-.07,0-.1,0l-12.81-2.56c-2.34-.47-4.76-.95-6.97-2.06-2.53-1.27-4.31-3.19-5.01-5.39-.09-.28,.07-.57,.34-.66,.28-.09,.57,.07,.66,.34,.6,1.91,2.24,3.65,4.48,4.78,2.08,1.04,4.43,1.51,6.7,1.97l12.81,2.56c.28,.06,.47,.33,.41,.62-.05,.25-.27,.42-.51,.42Z"></path><path class="cls-2" d="M356.35,333.23c-.08,0-.16-.02-.24-.06-.26-.13-.36-.45-.23-.71,1.25-2.46,3.83-4.41,7.07-5.36,2.87-.84,5.87-.89,8.76-.93h0c.29,0,.52,.23,.52,.52,0,.29-.23,.53-.52,.53-2.83,.04-5.75,.08-8.49,.89-2.97,.87-5.31,2.63-6.43,4.83-.09,.18-.28,.29-.47,.29Z"></path><path class="cls-2" d="M360.54,328.25c-.05,0-.11,0-.16-.03-.28-.09-.43-.38-.34-.66,.68-2.12,1.11-4.33,1.26-6.55,.02-.29,.28-.51,.56-.49,.29,.02,.51,.27,.49,.56-.15,2.31-.59,4.6-1.3,6.81-.07,.22-.28,.36-.5,.36Z"></path><path class="cls-2" d="M363.64,328.41c-.06,0-.12,0-.17-.03-.27-.09-.42-.39-.32-.67,.73-2.1,1.29-4.27,1.65-6.47,.05-.29,.32-.48,.6-.43,.29,.05,.48,.32,.43,.6-.37,2.25-.94,4.49-1.69,6.64-.08,.22-.28,.35-.49,.35Z"></path><path class="cls-2" d="M306.99,215.61c-.11,0-.21-.03-.3-.1-.24-.17-.29-.49-.12-.73,2.45-3.44,5.32-6.56,8.54-9.28,.68-.57,1.7-1.29,2.77-.91,.65,.23,1.05,.78,1.35,1.29,.77,1.28,1.29,2.68,1.55,4.15,.05,.28-.14,.56-.42,.61-.29,.05-.56-.14-.61-.42-.24-1.35-.72-2.62-1.42-3.79-.21-.35-.47-.72-.8-.84-.43-.15-.98,.08-1.74,.73-3.15,2.66-5.97,5.72-8.36,9.09-.1,.14-.26,.22-.43,.22Z"></path><path class="cls-2" d="M285.45,440.43c-4.15,0-8.26-.55-12.28-1.64-.28-.08-.44-.36-.37-.64,.08-.28,.36-.44,.64-.37,4.92,1.33,9.99,1.84,15.06,1.5,.31-.02,.54,.2,.56,.49,.02,.29-.2,.54-.49,.56-1.04,.07-2.08,.1-3.12,.1Z"></path></g><g id="letter"><path class="cls-8" d="M32.59,88.05c-1.6,9.58-2.39,19.29-2.37,28.99,0,4.09,.23,8.42,2.46,11.85,2.62,4.04,7.59,6.03,12.39,6.35s9.57-.78,14.3-1.68c20.17-3.83,41.01-4.05,61.26-.66,5.37,.9,10.85,2.05,16.22,1.13,5.37-.92,10.71-4.5,11.83-9.83,.94-4.47-1.33-9.15-4.71-12.22-3.38-3.07-7.74-4.82-12.05-6.35-12.42-4.39-25.35-7.44-37.24-13.1-8.08-3.85-15.28-9.01-21.22-15.71-4.06-4.59-7.65-11.65-13.32-14.49-16.15-8.1-25.57,13.81-27.55,25.71Z"></path><path class="cls-7" d="M62.12,72.17c2.26,6.84,6.28,12.92,7.55,20.01,5.83,32.42,1.55,65.89-6.27,97.89-7.82,32-19.12,63.04-27.6,94.87-4.46,16.74-8.14,34.41-4.04,51.24,4.85,19.9,19.84,35.65,35.44,48.93,15.93,13.56,34.03,26.02,54.76,28.84,18.19,2.48,36.54-2.72,53.67-9.33,36.69-14.14,70.77-35.03,100.03-61.31,4.9-4.4,10-11.48,6.2-16.85-1.5-2.11-4.02-3.21-6.47-4.07-17.9-6.27-40.01-6.07-51.75-20.96-7.07-8.97-8.21-21.42-6.17-32.66s6.87-21.73,10.76-32.47c13.8-38.12,15.62-80.49,5.13-119.66-2.1-7.84-4.93-15.95-11.05-21.28-5.73-5-13.48-6.82-20.9-8.47-11.35-2.54-22.86-5.09-34.48-4.63-14.13,.56-27.79,5.56-41.91,6.4-16.98,1.01-34.26-4.25-47.8-14.56-4.96-3.78-9.49-8.25-15.06-11.06-3.93-1.99-9.22-3.43-13.4-1.78,5.22-1.21,11.39,4.94,13.35,10.89Z"></path><path class="cls-8" d="M135.87,357.04c-2.55,12.51-12.08,22.91-23.57,28.48-11.49,5.57-24.72,6.72-37.42,5.42,22.01,19.1,50.71,32.37,84.87,23.28,28.86-7.69,57.43-27.9,85.1-39.14,8.89-3.61,17.91-7.06,26.02-12.19,8.1-5.13,15.34-12.15,18.95-21.03,2.44-6.02,4.78-29.54-7.6-26.23-5.22,1.4-10.93,6.47-15.71,9.09-5.43,2.97-10.96,5.74-16.58,8.31-22.73,10.41-46.94,17.58-71.67,21.24-14.02,2.07-28.21,3.02-42.38,2.78Z"></path><path class="cls-6" d="M123.09,323.39c5.56-28.16,11.12-56.33,16.68-84.49-5.46-1.4-10.92-2.79-16.37-4.19-3.79,23.13-7.59,46.26-11.38,69.39-10.15-4.25-20.3-8.51-30.45-12.76-2.18-.91-7.09,10.03-6.45,12.07,1.45,4.59,10.02,5.94,13.94,7.39,11.34,4.2,22.69,8.4,34.03,12.6Z"></path><path class="cls-6" d="M139.48,281.54c.64,1.2,1.23,2.45,1.75,3.74,7.59,18.97-1.64,40.51-20.62,48.09s-40.51-1.64-48.09-20.62c-7.59-18.97,1.64-40.51,20.62-48.09,5.39-2.16,10.99-2.95,16.42-2.55,.74-3.31,1.49-6.61,2.29-9.91,.12-.51,.25-1.04,.38-1.57-7.7-.86-15.72,.11-23.42,3.19-24.96,9.98-37.1,38.31-27.12,63.27,9.98,24.96,38.31,37.1,63.27,27.12,24.96-9.98,37.1-38.31,27.12-63.27-1.86-4.66-4.37-8.87-7.36-12.57-1.74,4.39-3.48,8.78-5.23,13.16Z"></path><path class="cls-8" d="M209.38,120.23c-.07,0-.14-.01-.2-.04-16.71-7.49-35.79-6.22-54.24-4.98l-.53,.04c-19.69,1.32-38.71,1.79-54.94-6.75-.24-.13-.34-.43-.21-.68,.13-.24,.43-.34,.68-.21,15.99,8.41,34.86,7.94,54.41,6.63l.53-.04c18.57-1.24,37.78-2.52,54.72,5.07,.25,.11,.36,.41,.25,.66-.08,.19-.27,.3-.46,.3Z"></path><path class="cls-8" d="M214.84,148.22c-.09,0-.18-.02-.26-.07-17.07-10.17-37.8-10.63-57.56-10.23l-3.3,.07c-18.82,.4-38.27,.82-55.61-6.59-.25-.11-.37-.4-.26-.66,.11-.25,.4-.37,.66-.26,17.14,7.33,36.48,6.91,55.2,6.51l3.3-.07c19.91-.4,40.8,.07,58.1,10.38,.24,.14,.31,.45,.17,.69-.09,.16-.26,.24-.43,.24Z"></path><path class="cls-8" d="M214.75,175.18c-.11,0-.22-.04-.32-.11-15.18-12.43-37.25-13.17-58.85-12.13l-2.67,.13c-20.29,1.01-41.28,2.05-58.44-7.4-.24-.13-.33-.44-.2-.68,.13-.24,.44-.33,.68-.2,16.91,9.31,37.75,8.27,57.91,7.28l2.67-.13c21.8-1.06,44.09-.29,59.53,12.35,.21,.17,.25,.49,.07,.7-.1,.12-.24,.18-.39,.18Z"></path><path class="cls-8" d="M204.22,202.29c-.15,0-.29-.06-.39-.19-4.95-6.12-13.28-10.01-23.46-10.95-6.65-.61-13.45-.02-20.03,.55-2.24,.19-4.56,.4-6.84,.55-21.12,1.4-42.91-1.35-63.02-7.96-.26-.09-.4-.37-.32-.63,.09-.26,.37-.41,.63-.32,19.99,6.57,41.65,9.3,62.64,7.91,2.27-.15,4.58-.35,6.82-.54,6.62-.58,13.47-1.17,20.21-.55,10.45,.96,19.03,4.98,24.15,11.32,.17,.21,.14,.53-.08,.7-.09,.07-.2,.11-.31,.11Z"></path></g><g id="stamp"><path class="cls-6" d="M427.88,107.81c-8.53-4.26-19.47-4.84-27.19,.76-7.12,5.16-10.07,14.18-12.74,22.56-10.06,31.59-22.01,62.71-38.22,91.63s-36.81,55.66-62.51,76.6c-7.09,5.78-14.73,11.3-19.48,19.12s-5.76,18.81,.38,25.59c6.22,6.87,17.43,6.83,25.73,2.71,8.3-4.12,14.5-11.38,20.94-18.04,20-20.69,44.08-36.88,66.97-54.32,22.89-17.44,45.15-36.76,59.66-61.61,8.51-14.57,13.99-31.18,14.81-48.09,.61-12.54-.65-29.17-8.6-39.56-5.23-6.83-12.02-13.49-19.76-17.35Z"></path><path class="cls-6" d="M272,339.78c3.33,.01,6.07-2.48,8.45-4.81,41.09-40.34,82.47-81.01,114.99-128.54,8.99-13.14,17.34-26.89,22.76-41.86,5.43-14.97,7.84-31.33,4.77-46.95-.61-3.12-1.5-6.31-3.57-8.73-3.97-4.63-11.37-4.98-16.82-2.25-5.45,2.73-9.3,7.83-12.48,13.03-10.31,16.82-15.69,36.1-22.61,54.58-10,26.72-23.45,52.13-39.83,75.49-16.4,23.39-36.68,41.37-55.89,62.09-5.12,5.53-13.93,27.9,.22,27.96Z"></path><path class="cls-4" d="M447.68,122.76c-5.93,2.33-11.19,7.27-12.27,13.54s3.22,13.46,9.56,14.08c-2.1,3.76-1.77,8.75,.81,12.2,2.58,3.45,7.28,5.17,11.48,4.21-1.07,4.79-2.15,9.64-1.98,14.55s1.72,9.95,5.23,13.38c3.51,3.43,9.2,4.84,13.52,2.51,6.19-3.34,6.86-11.79,6.75-18.82-.23-14.67-.54-29.79-5.35-43.81-1.6-4.65-3.62-11.67-8.66-13.68-5.29-2.11-14.12-.11-19.1,1.85Z"></path><path class="cls-4" d="M293.18,273.29c5.32-1.91,11.42,.07,15.79,3.66s7.34,8.56,10.13,13.47c2.65,4.66,5.28,9.47,6.21,14.75,.93,5.28-.1,11.2-3.92,14.96-5.16,5.08-13.44,4.78-20.59,3.6-5.27,6.34-14.67,8.87-22.41,6.02-7.74-2.85-13.25-10.88-13.14-19.13,.14-10.09,6.81-13.52,13.49-19.17,6.18-5.23,5.6-14.99,14.42-18.16Z"></path><path class="cls-2" d="M471.88,154.59c-.21,0-.41-.13-.49-.34-.93-2.45-3.71-8.28-9.36-9.68-3.28-.81-6.49,.17-8.61,1.14-2.75,1.25-5.21,3.13-7.59,4.94-.23,.17-.56,.13-.73-.1-.17-.23-.13-.56,.1-.73,2.43-1.85,4.94-3.76,7.79-5.06,2.27-1.03,5.73-2.08,9.29-1.2,4.32,1.07,7.99,4.83,10.08,10.32,.1,.27-.03,.57-.3,.68-.06,.02-.12,.03-.19,.03Z"></path><path class="cls-2" d="M308.15,322.63c-.18,0-.36-.1-.46-.27-5.13-9.18-12.19-17.52-20.4-24.1-.23-.18-.26-.51-.08-.74,.18-.23,.51-.26,.74-.08,8.32,6.66,15.46,15.1,20.66,24.4,.14,.25,.05,.57-.2,.71-.08,.04-.17,.07-.26,.07Z"></path><path class="cls-3" d="M220.56,287.72c11.76-2.54,23.74,2.87,33.97,9.21s20.14,13.92,31.9,16.46c14.84,3.2,31.31-1.97,44.95,4.69,9.56,4.67,15.73,14.38,19.29,24.39,10.24,28.79,1.08,63.43-22.05,83.39-7.87,6.79-17.56,12.07-27.95,12.42-9.05,.3-17.8-3.12-25.93-7.11-3.7-1.81-7.79-4.41-8.15-8.51-.31-3.5,2.41-6.63,5.53-8.24s6.67-2.14,10-3.24c11.85-3.94,20.36-15.84,21.02-28.31,.65-12.47-6.2-24.86-16.71-31.6-9.13-5.85-20.21-7.53-30.77-9.99-10.75-2.5-21.29-5.93-31.45-10.24-10.12-4.29-16.27-15.21-18.08-26.06-.62-3.71-.62-7.76,1.36-10.96,2.48-4.02,8.46-5.3,13.08-6.3Z"></path><path class="cls-6" d="M226.01,293.9c9.25,3.9,16.54,11.19,23.91,18,7.37,6.81,15.48,13.5,25.27,15.66,10.11,2.24,21.05-.6,30.79,2.91,10.36,3.73,17.15,14.05,19.96,24.7,4.62,17.49,.37,36.12-6.04,53.04-2.48,6.56-5.32,13.06-9.51,18.69s-9.85,10.36-16.57,12.38c-10.15,3.05-21.1-.42-30.63-5.05s-18.67-10.51-29.03-12.7c-10.9-2.3-22.62-.36-33.03-4.33-11.59-4.42-19.52-15.64-23.06-27.52-3.54-11.89-3.32-24.53-2.92-36.92,.31-9.71,.74-19.53,3.46-28.85,6.02-20.67,24.36-39.71,47.4-30Z"></path><path class="cls-6" d="M195.18,310.24c-4.21,6.07-6.17,13.4-7.5,20.66-2.78,15.16-3.17,30.76-1.14,46.04,1.33,9.99,4.14,20.61,11.96,26.97,5.47,4.45,12.65,6.18,19.65,7.06,7,.88,14.13,1.07,20.92,3,8.86,2.53,16.6,7.88,24.93,11.81,8.33,3.92,18.18,6.39,26.67,2.82,5.67-2.39,10.03-7.23,12.99-12.63,2.96-5.4,4.68-11.37,6.37-17.29,1.89-6.61,3.78-13.22,5.67-19.83,2-6.99,4.01-14.4,2.13-21.43-2.18-8.19-9.32-14.24-17.03-17.77-7.71-3.53-20.13-1.61-28.24-4.09-12.77-3.9-20.68-13.63-31.91-20.77-5.67-3.61-11.12-7.52-16.66-11.32-4.01-2.75-8.11-5.35-13.15-4.26-6.2,1.35-12.1,5.9-15.66,11.02Z"></path><path class="cls-3" d="M240.21,391.04c-6.27-19.83-12.54-39.65-18.81-59.48,3.82-1.45,7.63-2.89,11.45-4.34,4.59,16.34,9.18,32.69,13.78,49.03,6.96-3.88,13.93-7.76,20.89-11.64,1.5-.83,5.91,6.65,5.61,8.17-.67,3.42-6.74,5.08-9.44,6.44-7.83,3.94-15.65,7.87-23.48,11.81Z"></path><path class="cls-3" d="M225.04,362.24c-.37,.92-.69,1.86-.96,2.84-3.93,14.27,4.44,29.02,18.71,32.96,14.27,3.93,29.02-4.44,32.96-18.71,3.93-14.27-4.44-29.02-18.71-32.96-4.05-1.12-8.15-1.24-12.02-.52-.8-2.32-1.61-4.64-2.45-6.95-.13-.36-.26-.73-.4-1.1,5.47-1.24,11.32-1.19,17.11,.41,18.77,5.18,29.79,24.59,24.62,43.36-5.18,18.77-24.59,29.79-43.36,24.62-18.77-5.18-29.79-24.59-24.62-43.36,.97-3.5,2.43-6.73,4.29-9.64,1.61,3.02,3.21,6.04,4.82,9.06Z"></path></g></svg>