<svg transform="scale(1)" id="_0369_Mobile_Phone" xmlns="http://www.w3.org/2000/svg" viewBox="0 0 500 500" class="show_show__wrapper__graphic__5Waiy "><title>React</title><defs><style>.cls-1{fill:#d6b2a4;}.cls-2{fill:#fff;}.cls-3{fill:#3c4368;}.cls-4{opacity:.29;}.cls-5{fill:#ffde91;}.cls-6{fill:#af93a2;}.cls-7{fill:#292e54;}.cls-8{fill:#e6e7e8;}</style></defs><g id="hand-back"><path class="cls-8" d="M317.94,426.7c.7,7.25,.78,15.43-7.13,21.09-8.4,6.02-22.26,6.72-34.48,6.94-25.56,.47-51.12,.93-76.68,1.4-10.79,.2-22.87,.07-29.9-4.8-7.19-4.99-6.19-12.91-4.75-19.93,9.56-46.74,20.33-93.44,32.3-140.07,3.83-14.93,11.03-28.39,36.2-33.39,17.32-3.44,33.6-2.21,43.05,7.39,11.83,12.02,13.56,30.02,17.84,43.92,5.5,17.89,10.14,35.93,13.92,54.07,4.37,20.99,7.59,42.13,9.63,63.38Z"></path><g id="hand-back-2"><path class="cls-6" d="M287,313.01c-20,20.59-54.2,30.44-77.93,14.29-21.95-14.93-26.83-44.66-29.79-71.04-2.79-24.82-5.57-49.63-8.36-74.45-1.2-10.65-2.36-21.7,1-31.88,3.36-10.18,12.58-19.27,23.29-18.85,15.75,.61,23.81,19.54,24.33,35.3,.52,15.76-2.26,33.04,6.64,46.05,10.38,15.2,31.69,17.37,50.09,16.76,17.93-.59,50.22-5.68,44.66,19.73-4.92,22.51-17.91,47.59-33.93,64.08Z"></path></g></g><g id="phone"><path class="cls-3" d="M225.68,54.18c4.2-1.63,9.54-.29,14.43,1.04,16.08,4.39,84.22,27.42,99.66,33.69,4.7,1.91,9.75,4.09,12.1,7.93,2.66,4.34,1.01,9.38-.68,13.86-20.05,53.14-39.91,105.78-59.59,157.92-2.55,6.77-5.69,14.11-13.23,17.02-8.12,3.13-18.31,0-27.24-3.09-9.73-3.36-19.36-6.69-28.95-10.01-9.63-3.18-19.31-6.38-29.08-9.61-8.98-2.97-18.98-6.66-23.53-14.07-4.23-6.89-2.27-14.63-.2-21.56,15.99-53.39,32.14-107.28,48.44-161.69,1.38-4.59,3.12-9.59,7.87-11.43Z"></path><path class="cls-1" d="M229.83,64.42c3.65-1.24,8.37-.03,12.69,1.17,14.21,3.96,74.55,24.35,88.25,29.83,4.17,1.67,8.65,3.57,10.8,6.77,2.43,3.62,1.1,7.71-.29,11.35-16.42,43.12-32.69,85.83-48.81,128.14-2.09,5.49-4.68,11.44-11.24,13.66-7.06,2.39-16.07-.4-23.99-3.14-8.62-2.97-17.15-5.92-25.64-8.85-8.52-2.82-17.09-5.66-25.75-8.52-7.95-2.63-16.81-5.88-20.97-12.06-3.87-5.75-2.32-12.04-.65-17.68,12.86-43.42,25.84-87.24,38.94-131.48,1.11-3.73,2.53-7.79,6.65-9.19Z"></path><path class="cls-7" d="M235.24,253.71c.64,2.99-.8,6.31-3.43,7.87-2.62,1.56-6.23,1.26-8.55-.73-2.32-1.99-3.18-5.5-2.03-8.34,2.65-6.56,12.52-5.72,14.01,1.2Z"></path><g class="cls-4"><path class="cls-2" d="M297.55,171.43c2.69,8.11,5.23,16.49,4.79,25.02-.33,6.49-2.37,12.75-4.52,18.89-2.58,7.38-5.34,14.71-8.28,21.96-1.61,3.97-3.43,8.13-6.91,10.61-4.21,3.01-9.84,2.88-15,2.43-5.02-.44-10.26-1.15-14.39-4.05-5.05-3.55-7.49-9.69-9.66-15.47-9.61-25.56-19.22-51.12-28.83-76.68-2.1-5.58-4.22-11.28-4.39-17.24-.16-5.79,1.54-11.46,3.23-17,4.1-13.48,8.2-26.96,12.3-40.44,1.14-3.74,2.45-7.74,5.57-10.1,3.29-2.49,7.93-2.53,11.82-1.15,5.74,2.05,11.71,5.98,14.6,11.34,3.84,7.12,7.53,14.33,11.07,21.61,7.07,14.56,13.53,29.41,19.36,44.51,3.28,8.51,6.36,17.1,9.23,25.76Z"></path><path class="cls-2" d="M309.58,185.06c-11.29-38.35-27.24-75.33-47.62-109.72,4,.55,7.95,1.46,11.79,2.7,3.52,1.14,7.04,2.62,9.69,5.21,2.35,2.29,3.86,5.29,5.29,8.24,6.59,13.57,12.63,27.41,18.03,41.49,4.05,10.56,9.49,21.09,8.92,32.69-.34,6.85-2.37,13.63-6.11,19.4Z"></path></g></g><g id="finger-front"><path class="cls-6" d="M361.28,150c.06-11.67-2.18-25.49-12.67-30.58-13.34-6.47-27.88,6.3-35.99,18.71-20.61,31.52-31.65,69.21-31.28,106.87,.2,20.43,3.13,42.9-8.8,59.49-4.63,6.44-38.35,35.58-7.86,25.89,19.07-6.06,38.71-32.08,50.34-47.34,28.92-37.97,46.05-85.17,46.27-133.03Z"></path><path class="cls-2" d="M340.15,234.96s-.05,0-.08,0c-.27-.04-.46-.3-.41-.57,4.65-28.7-8.25-59.15-32.09-75.78-.23-.16-.28-.47-.12-.7,.16-.23,.47-.28,.7-.12,24.15,16.84,37.22,47.69,32.51,76.76-.04,.25-.25,.42-.49,.42Z"></path></g><g id="blinks"><path class="cls-5" d="M106.73,187.79c-3.07-.97-6.33-1.92-9.78-1.75-3.44,.17-7.06,1.84-7.46,4.18-.56,3.26,4.78,5.21,9.25,6.28,6.4,1.53,40.88,12.15,42.96,7.35,2.35-5.41-28.97-14.18-34.97-16.06Z"></path><path class="cls-5" d="M101.45,261.49c-3.1,1.33-6.27,2.68-9.7,3.48-3.44,.81-7.25,1-9.72,0-4.17-1.67-2.71-6.05,1.53-8.91,4.24-2.86,10.29-4.54,16.06-5.95,11.75-2.87,25.72-6.34,37.52-6.84,.18,5.79-27.74,14.81-35.68,18.21Z"></path><path class="cls-5" d="M116.65,327.53c-6.05,.48-8.51-2.45-7.02-5.72,1.49-3.26,5.86-6.73,10.09-10.03,6.2-4.85,35.43-31.23,35.66-18.21,.14,8.03-26.49,26.18-38.73,33.96Z"></path><g id="clap"><path class="cls-5" d="M409.44,134.48c2.12,.3,4.36,.57,6.59,.09,2.23-.49,4.42-1.97,4.43-3.55,.01-2.19-3.69-2.89-6.74-3.11-4.36-.31-28.08-3.52-28.92-.15-.95,3.8,20.51,6.14,24.63,6.72Z"></path><path class="cls-5" d="M404.91,85.67c1.89-1.21,3.81-2.43,5.97-3.33,2.16-.9,4.64-1.44,6.36-1.06,2.91,.64,2.43,3.66-.03,6-2.47,2.33-6.24,4.09-9.87,5.64-7.38,3.15-16.15,6.94-23.82,8.55-.75-3.77,16.56-12.7,21.38-15.79Z"></path><path class="cls-5" d="M387.79,44.09c3.91-.97,5.84,.68,5.22,2.98-.62,2.3-3.11,5.04-5.52,7.66-3.53,3.85-19.8,24.28-21.37,15.79-.96-5.24,14.5-20.01,21.67-26.43Z"></path></g></g></svg>